G04 (created by PCBNEW (2013-jul-07)-stable) date Tue 05 Jan 2016 02:20:32 PM PST*
%MOIN*%
G04 Gerber Fmt 3.4, Leading zero omitted, Abs format*
%FSLAX34Y34*%
G01*
G70*
G90*
G04 APERTURE LIST*
%ADD10C,0.00590551*%
%ADD11C,0.008*%
%ADD12C,0.015*%
G04 APERTURE END LIST*
G54D10*
G54D11*
X40282Y-44192D02*
X40732Y-44085D01*
X40410Y-44000D01*
X40732Y-43914D01*
X40282Y-43807D01*
X40732Y-42860D02*
X40517Y-43010D01*
X40732Y-43117D02*
X40282Y-43117D01*
X40282Y-42946D01*
X40303Y-42903D01*
X40325Y-42882D01*
X40367Y-42860D01*
X40432Y-42860D01*
X40475Y-42882D01*
X40496Y-42903D01*
X40517Y-42946D01*
X40517Y-43117D01*
X40689Y-41910D02*
X40710Y-41932D01*
X40732Y-41996D01*
X40732Y-42039D01*
X40710Y-42103D01*
X40667Y-42146D01*
X40625Y-42167D01*
X40539Y-42189D01*
X40475Y-42189D01*
X40389Y-42167D01*
X40346Y-42146D01*
X40303Y-42103D01*
X40282Y-42039D01*
X40282Y-41996D01*
X40303Y-41932D01*
X40325Y-41910D01*
G54D12*
X46139Y-40717D02*
X43461Y-40717D01*
X43461Y-40717D02*
X43461Y-45283D01*
X43461Y-45283D02*
X46139Y-45283D01*
X46139Y-45283D02*
X46139Y-40717D01*
G54D11*
X44504Y-40561D02*
X44504Y-40161D01*
X44657Y-40161D01*
X44695Y-40180D01*
X44714Y-40200D01*
X44733Y-40238D01*
X44733Y-40295D01*
X44714Y-40333D01*
X44695Y-40352D01*
X44657Y-40371D01*
X44504Y-40371D01*
X44885Y-40200D02*
X44904Y-40180D01*
X44942Y-40161D01*
X45038Y-40161D01*
X45076Y-40180D01*
X45095Y-40200D01*
X45114Y-40238D01*
X45114Y-40276D01*
X45095Y-40333D01*
X44866Y-40561D01*
X45114Y-40561D01*
M02*
