G04 (created by PCBNEW-RS274X (2012-apr-16-27)-stable) date Wed 01 Oct 2014 12:35:54 PM PDT*
G01*
G70*
G90*
%MOIN*%
G04 Gerber Fmt 3.4, Leading zero omitted, Abs format*
%FSLAX34Y34*%
G04 APERTURE LIST*
%ADD10C,0.006000*%
%ADD11C,0.015000*%
%ADD12C,0.012000*%
%ADD13C,0.010000*%
G04 APERTURE END LIST*
G54D10*
G54D11*
X24500Y-23000D02*
X24200Y-22700D01*
X24200Y-22700D02*
X24200Y-23300D01*
X24200Y-23300D02*
X24500Y-23000D01*
X28400Y-21000D02*
X28400Y-29000D01*
X28400Y-29000D02*
X24600Y-29000D01*
X24600Y-29000D02*
X24600Y-21000D01*
X24600Y-21000D02*
X28400Y-21000D01*
G54D12*
X26058Y-20793D02*
X26058Y-20193D01*
X26286Y-20193D01*
X26344Y-20221D01*
X26372Y-20250D01*
X26401Y-20307D01*
X26401Y-20393D01*
X26372Y-20450D01*
X26344Y-20479D01*
X26286Y-20507D01*
X26058Y-20507D01*
X26972Y-20793D02*
X26629Y-20793D01*
X26801Y-20793D02*
X26801Y-20193D01*
X26744Y-20279D01*
X26686Y-20336D01*
X26629Y-20364D01*
G54D13*
X27962Y-27024D02*
X27962Y-27310D01*
X27962Y-27167D02*
X27462Y-27167D01*
X27534Y-27215D01*
X27581Y-27262D01*
X27605Y-27310D01*
X27462Y-26715D02*
X27462Y-26667D01*
X27486Y-26619D01*
X27510Y-26596D01*
X27558Y-26572D01*
X27653Y-26548D01*
X27772Y-26548D01*
X27867Y-26572D01*
X27915Y-26596D01*
X27939Y-26619D01*
X27962Y-26667D01*
X27962Y-26715D01*
X27939Y-26762D01*
X27915Y-26786D01*
X27867Y-26810D01*
X27772Y-26834D01*
X27653Y-26834D01*
X27558Y-26810D01*
X27510Y-26786D01*
X27486Y-26762D01*
X27462Y-26715D01*
X25324Y-27142D02*
X25324Y-27047D01*
X25301Y-26999D01*
X25277Y-26975D01*
X25205Y-26928D01*
X25110Y-26904D01*
X24920Y-26904D01*
X24872Y-26928D01*
X24848Y-26952D01*
X24824Y-26999D01*
X24824Y-27095D01*
X24848Y-27142D01*
X24872Y-27166D01*
X24920Y-27190D01*
X25039Y-27190D01*
X25086Y-27166D01*
X25110Y-27142D01*
X25134Y-27095D01*
X25134Y-26999D01*
X25110Y-26952D01*
X25086Y-26928D01*
X25039Y-26904D01*
X27510Y-23135D02*
X27486Y-23111D01*
X27462Y-23063D01*
X27462Y-22944D01*
X27486Y-22897D01*
X27510Y-22873D01*
X27558Y-22849D01*
X27605Y-22849D01*
X27677Y-22873D01*
X27962Y-23159D01*
X27962Y-22849D01*
M02*
