G04 (created by PCBNEW-RS274X (2012-apr-16-27)-stable) date Sat 13 Sep 2014 10:18:44 AM PDT*
G01*
G70*
G90*
%MOIN*%
G04 Gerber Fmt 3.4, Leading zero omitted, Abs format*
%FSLAX34Y34*%
G04 APERTURE LIST*
%ADD10C,0.006000*%
%ADD11C,0.010000*%
%ADD12C,0.015000*%
%ADD13C,0.012000*%
G04 APERTURE END LIST*
G54D10*
G54D11*
X46155Y-47302D02*
X45988Y-47064D01*
X45869Y-47302D02*
X45869Y-46802D01*
X46060Y-46802D01*
X46107Y-46826D01*
X46131Y-46850D01*
X46155Y-46898D01*
X46155Y-46969D01*
X46131Y-47017D01*
X46107Y-47040D01*
X46060Y-47064D01*
X45869Y-47064D01*
X44786Y-46802D02*
X44905Y-47302D01*
X45001Y-46945D01*
X45096Y-47302D01*
X45215Y-46802D01*
X44155Y-47255D02*
X44131Y-47279D01*
X44060Y-47302D01*
X44012Y-47302D01*
X43940Y-47279D01*
X43893Y-47231D01*
X43869Y-47183D01*
X43845Y-47088D01*
X43845Y-47017D01*
X43869Y-46921D01*
X43893Y-46874D01*
X43940Y-46826D01*
X44012Y-46802D01*
X44060Y-46802D01*
X44131Y-46826D01*
X44155Y-46850D01*
G54D12*
X43000Y-46600D02*
X47250Y-46600D01*
X42750Y-43400D02*
X42750Y-46350D01*
X42750Y-46350D02*
X43000Y-46600D01*
X42750Y-43400D02*
X47250Y-43400D01*
X47250Y-43400D02*
X47250Y-46600D01*
G54D13*
X47511Y-45282D02*
X47511Y-44682D01*
X47739Y-44682D01*
X47797Y-44710D01*
X47825Y-44739D01*
X47854Y-44796D01*
X47854Y-44882D01*
X47825Y-44939D01*
X47797Y-44968D01*
X47739Y-44996D01*
X47511Y-44996D01*
X48425Y-45282D02*
X48082Y-45282D01*
X48254Y-45282D02*
X48254Y-44682D01*
X48197Y-44768D01*
X48139Y-44825D01*
X48082Y-44853D01*
M02*
