G04 (created by PCBNEW-RS274X (2012-apr-16-27)-stable) date Sat 13 Sep 2014 10:18:44 AM PDT*
G01*
G70*
G90*
%MOIN*%
G04 Gerber Fmt 3.4, Leading zero omitted, Abs format*
%FSLAX34Y34*%
G04 APERTURE LIST*
%ADD10C,0.006000*%
%ADD11C,0.010000*%
%ADD12C,0.008000*%
G04 APERTURE END LIST*
G54D10*
G54D11*
X42845Y-45202D02*
X43012Y-44964D01*
X43131Y-45202D02*
X43131Y-44702D01*
X42940Y-44702D01*
X42893Y-44726D01*
X42869Y-44750D01*
X42845Y-44798D01*
X42845Y-44869D01*
X42869Y-44917D01*
X42893Y-44940D01*
X42940Y-44964D01*
X43131Y-44964D01*
G54D12*
X47091Y-43029D02*
X46691Y-43029D01*
X46691Y-43295D02*
X46691Y-43372D01*
X46710Y-43410D01*
X46748Y-43448D01*
X46824Y-43467D01*
X46958Y-43467D01*
X47034Y-43448D01*
X47072Y-43410D01*
X47091Y-43372D01*
X47091Y-43295D01*
X47072Y-43257D01*
X47034Y-43219D01*
X46958Y-43200D01*
X46824Y-43200D01*
X46748Y-43219D01*
X46710Y-43257D01*
X46691Y-43295D01*
X47091Y-44172D02*
X46900Y-44038D01*
X47091Y-43943D02*
X46691Y-43943D01*
X46691Y-44096D01*
X46710Y-44134D01*
X46729Y-44153D01*
X46767Y-44172D01*
X46824Y-44172D01*
X46862Y-44153D01*
X46881Y-44134D01*
X46900Y-44096D01*
X46900Y-43943D01*
X47091Y-44400D02*
X47072Y-44362D01*
X47053Y-44343D01*
X47015Y-44324D01*
X46900Y-44324D01*
X46862Y-44343D01*
X46843Y-44362D01*
X46824Y-44400D01*
X46824Y-44458D01*
X46843Y-44496D01*
X46862Y-44515D01*
X46900Y-44534D01*
X47015Y-44534D01*
X47053Y-44515D01*
X47072Y-44496D01*
X47091Y-44458D01*
X47091Y-44400D01*
X47091Y-44877D02*
X46691Y-44877D01*
X47072Y-44877D02*
X47091Y-44839D01*
X47091Y-44762D01*
X47072Y-44724D01*
X47053Y-44705D01*
X47015Y-44686D01*
X46900Y-44686D01*
X46862Y-44705D01*
X46843Y-44724D01*
X46824Y-44762D01*
X46824Y-44839D01*
X46843Y-44877D01*
X47072Y-45220D02*
X47091Y-45182D01*
X47091Y-45105D01*
X47072Y-45067D01*
X47034Y-45048D01*
X46881Y-45048D01*
X46843Y-45067D01*
X46824Y-45105D01*
X46824Y-45182D01*
X46843Y-45220D01*
X46881Y-45239D01*
X46919Y-45239D01*
X46958Y-45048D01*
X47091Y-45467D02*
X47072Y-45429D01*
X47053Y-45410D01*
X47015Y-45391D01*
X46900Y-45391D01*
X46862Y-45410D01*
X46843Y-45429D01*
X46824Y-45467D01*
X46824Y-45525D01*
X46843Y-45563D01*
X46862Y-45582D01*
X46900Y-45601D01*
X47015Y-45601D01*
X47053Y-45582D01*
X47072Y-45563D01*
X47091Y-45525D01*
X47091Y-45467D01*
X47091Y-46077D02*
X46691Y-46077D01*
X46824Y-46267D02*
X47091Y-46267D01*
X46862Y-46267D02*
X46843Y-46286D01*
X46824Y-46324D01*
X46824Y-46382D01*
X46843Y-46420D01*
X46881Y-46439D01*
X47091Y-46439D01*
X47072Y-46801D02*
X47091Y-46763D01*
X47091Y-46686D01*
X47072Y-46648D01*
X47053Y-46629D01*
X47015Y-46610D01*
X46900Y-46610D01*
X46862Y-46629D01*
X46843Y-46648D01*
X46824Y-46686D01*
X46824Y-46763D01*
X46843Y-46801D01*
X47053Y-46972D02*
X47072Y-46991D01*
X47091Y-46972D01*
X47072Y-46953D01*
X47053Y-46972D01*
X47091Y-46972D01*
X47693Y-42933D02*
X47712Y-42914D01*
X47731Y-42857D01*
X47731Y-42819D01*
X47712Y-42761D01*
X47674Y-42723D01*
X47636Y-42704D01*
X47559Y-42685D01*
X47502Y-42685D01*
X47426Y-42704D01*
X47388Y-42723D01*
X47350Y-42761D01*
X47331Y-42819D01*
X47331Y-42857D01*
X47350Y-42914D01*
X47369Y-42933D01*
X47731Y-43104D02*
X47331Y-43104D01*
X47731Y-43276D02*
X47521Y-43276D01*
X47483Y-43257D01*
X47464Y-43219D01*
X47464Y-43161D01*
X47483Y-43123D01*
X47502Y-43104D01*
X47712Y-43619D02*
X47731Y-43581D01*
X47731Y-43504D01*
X47712Y-43466D01*
X47674Y-43447D01*
X47521Y-43447D01*
X47483Y-43466D01*
X47464Y-43504D01*
X47464Y-43581D01*
X47483Y-43619D01*
X47521Y-43638D01*
X47559Y-43638D01*
X47598Y-43447D01*
X47731Y-43981D02*
X47521Y-43981D01*
X47483Y-43962D01*
X47464Y-43924D01*
X47464Y-43847D01*
X47483Y-43809D01*
X47712Y-43981D02*
X47731Y-43943D01*
X47731Y-43847D01*
X47712Y-43809D01*
X47674Y-43790D01*
X47636Y-43790D01*
X47598Y-43809D01*
X47579Y-43847D01*
X47579Y-43943D01*
X47559Y-43981D01*
X47464Y-44171D02*
X47864Y-44171D01*
X47483Y-44171D02*
X47464Y-44209D01*
X47464Y-44286D01*
X47483Y-44324D01*
X47502Y-44343D01*
X47540Y-44362D01*
X47655Y-44362D01*
X47693Y-44343D01*
X47712Y-44324D01*
X47731Y-44286D01*
X47731Y-44209D01*
X47712Y-44171D01*
X47712Y-44514D02*
X47731Y-44571D01*
X47731Y-44667D01*
X47712Y-44705D01*
X47693Y-44724D01*
X47655Y-44743D01*
X47617Y-44743D01*
X47579Y-44724D01*
X47559Y-44705D01*
X47540Y-44667D01*
X47521Y-44590D01*
X47502Y-44552D01*
X47483Y-44533D01*
X47445Y-44514D01*
X47407Y-44514D01*
X47369Y-44533D01*
X47350Y-44552D01*
X47331Y-44590D01*
X47331Y-44686D01*
X47350Y-44743D01*
X47464Y-44857D02*
X47464Y-45009D01*
X47331Y-44914D02*
X47674Y-44914D01*
X47712Y-44933D01*
X47731Y-44971D01*
X47731Y-45009D01*
X47731Y-45315D02*
X47521Y-45315D01*
X47483Y-45296D01*
X47464Y-45258D01*
X47464Y-45181D01*
X47483Y-45143D01*
X47712Y-45315D02*
X47731Y-45277D01*
X47731Y-45181D01*
X47712Y-45143D01*
X47674Y-45124D01*
X47636Y-45124D01*
X47598Y-45143D01*
X47579Y-45181D01*
X47579Y-45277D01*
X47559Y-45315D01*
X47464Y-45448D02*
X47464Y-45600D01*
X47331Y-45505D02*
X47674Y-45505D01*
X47712Y-45524D01*
X47731Y-45562D01*
X47731Y-45600D01*
X47712Y-46020D02*
X47731Y-46077D01*
X47731Y-46173D01*
X47712Y-46211D01*
X47693Y-46230D01*
X47655Y-46249D01*
X47617Y-46249D01*
X47579Y-46230D01*
X47559Y-46211D01*
X47540Y-46173D01*
X47521Y-46096D01*
X47502Y-46058D01*
X47483Y-46039D01*
X47445Y-46020D01*
X47407Y-46020D01*
X47369Y-46039D01*
X47350Y-46058D01*
X47331Y-46096D01*
X47331Y-46192D01*
X47350Y-46249D01*
X47731Y-46420D02*
X47331Y-46420D01*
X47331Y-46573D01*
X47350Y-46611D01*
X47369Y-46630D01*
X47407Y-46649D01*
X47464Y-46649D01*
X47502Y-46630D01*
X47521Y-46611D01*
X47540Y-46573D01*
X47540Y-46420D01*
X47521Y-46820D02*
X47521Y-46954D01*
X47731Y-47011D02*
X47731Y-46820D01*
X47331Y-46820D01*
X47331Y-47011D01*
X48257Y-42818D02*
X48257Y-43009D01*
X48371Y-42780D02*
X47971Y-42913D01*
X48371Y-43047D01*
X48371Y-43352D02*
X47971Y-43352D01*
X48352Y-43352D02*
X48371Y-43314D01*
X48371Y-43237D01*
X48352Y-43199D01*
X48333Y-43180D01*
X48295Y-43161D01*
X48180Y-43161D01*
X48142Y-43180D01*
X48123Y-43199D01*
X48104Y-43237D01*
X48104Y-43314D01*
X48123Y-43352D01*
X48371Y-43714D02*
X48161Y-43714D01*
X48123Y-43695D01*
X48104Y-43657D01*
X48104Y-43580D01*
X48123Y-43542D01*
X48352Y-43714D02*
X48371Y-43676D01*
X48371Y-43580D01*
X48352Y-43542D01*
X48314Y-43523D01*
X48276Y-43523D01*
X48238Y-43542D01*
X48219Y-43580D01*
X48219Y-43676D01*
X48199Y-43714D01*
X48104Y-43904D02*
X48504Y-43904D01*
X48123Y-43904D02*
X48104Y-43942D01*
X48104Y-44019D01*
X48123Y-44057D01*
X48142Y-44076D01*
X48180Y-44095D01*
X48295Y-44095D01*
X48333Y-44076D01*
X48352Y-44057D01*
X48371Y-44019D01*
X48371Y-43942D01*
X48352Y-43904D01*
X48104Y-44209D02*
X48104Y-44361D01*
X47971Y-44266D02*
X48314Y-44266D01*
X48352Y-44285D01*
X48371Y-44323D01*
X48371Y-44361D01*
X48352Y-44648D02*
X48371Y-44610D01*
X48371Y-44533D01*
X48352Y-44495D01*
X48314Y-44476D01*
X48161Y-44476D01*
X48123Y-44495D01*
X48104Y-44533D01*
X48104Y-44610D01*
X48123Y-44648D01*
X48161Y-44667D01*
X48199Y-44667D01*
X48238Y-44476D01*
X48371Y-44838D02*
X48104Y-44838D01*
X48180Y-44838D02*
X48142Y-44857D01*
X48123Y-44876D01*
X48104Y-44914D01*
X48104Y-44953D01*
X48161Y-45525D02*
X48180Y-45582D01*
X48199Y-45601D01*
X48238Y-45620D01*
X48295Y-45620D01*
X48333Y-45601D01*
X48352Y-45582D01*
X48371Y-45544D01*
X48371Y-45391D01*
X47971Y-45391D01*
X47971Y-45525D01*
X47990Y-45563D01*
X48009Y-45582D01*
X48047Y-45601D01*
X48085Y-45601D01*
X48123Y-45582D01*
X48142Y-45563D01*
X48161Y-45525D01*
X48161Y-45391D01*
X48104Y-46058D02*
X48371Y-46153D01*
X48104Y-46249D01*
X47971Y-46477D02*
X47971Y-46516D01*
X47990Y-46554D01*
X48009Y-46573D01*
X48047Y-46592D01*
X48123Y-46611D01*
X48219Y-46611D01*
X48295Y-46592D01*
X48333Y-46573D01*
X48352Y-46554D01*
X48371Y-46516D01*
X48371Y-46477D01*
X48352Y-46439D01*
X48333Y-46420D01*
X48295Y-46401D01*
X48219Y-46382D01*
X48123Y-46382D01*
X48047Y-46401D01*
X48009Y-46420D01*
X47990Y-46439D01*
X47971Y-46477D01*
X48333Y-46782D02*
X48352Y-46801D01*
X48371Y-46782D01*
X48352Y-46763D01*
X48333Y-46782D01*
X48371Y-46782D01*
X48371Y-47182D02*
X48371Y-46953D01*
X48371Y-47067D02*
X47971Y-47067D01*
X48028Y-47029D01*
X48066Y-46991D01*
X48085Y-46953D01*
G54D11*
X42786Y-45702D02*
X42905Y-46202D01*
X43001Y-45845D01*
X43096Y-46202D01*
X43215Y-45702D01*
X42845Y-44155D02*
X42869Y-44179D01*
X42940Y-44202D01*
X42988Y-44202D01*
X43060Y-44179D01*
X43107Y-44131D01*
X43131Y-44083D01*
X43155Y-43988D01*
X43155Y-43917D01*
X43131Y-43821D01*
X43107Y-43774D01*
X43060Y-43726D01*
X42988Y-43702D01*
X42940Y-43702D01*
X42869Y-43726D01*
X42845Y-43750D01*
G54D10*
X42500Y-43500D02*
X41500Y-43500D01*
X41500Y-43500D02*
X41500Y-46500D01*
X41500Y-46500D02*
X42500Y-46500D01*
X42500Y-46500D02*
X42500Y-43500D01*
X41500Y-44500D02*
X42500Y-44500D01*
X42264Y-43312D02*
X42264Y-42912D01*
X42111Y-42912D01*
X42073Y-42931D01*
X42054Y-42950D01*
X42035Y-42988D01*
X42035Y-43045D01*
X42054Y-43083D01*
X42073Y-43102D01*
X42111Y-43121D01*
X42264Y-43121D01*
X41883Y-42950D02*
X41864Y-42931D01*
X41826Y-42912D01*
X41730Y-42912D01*
X41692Y-42931D01*
X41673Y-42950D01*
X41654Y-42988D01*
X41654Y-43026D01*
X41673Y-43083D01*
X41902Y-43312D01*
X41654Y-43312D01*
M02*
