G04 (created by PCBNEW-RS274X (2012-apr-16-27)-stable) date Sat 13 Sep 2014 01:38:15 PM PDT*
G01*
G70*
G90*
%MOIN*%
G04 Gerber Fmt 3.4, Leading zero omitted, Abs format*
%FSLAX34Y34*%
G04 APERTURE LIST*
%ADD10C,0.006000*%
%ADD11C,0.008000*%
G04 APERTURE END LIST*
G54D10*
G54D11*
X46156Y-45382D02*
X46070Y-45682D01*
X45984Y-45468D01*
X45899Y-45682D01*
X45813Y-45382D01*
X45685Y-45382D02*
X45599Y-45682D01*
X45513Y-45468D01*
X45428Y-45682D01*
X45342Y-45382D01*
X45214Y-45382D02*
X45128Y-45682D01*
X45042Y-45468D01*
X44957Y-45682D01*
X44871Y-45382D01*
X44700Y-45639D02*
X44678Y-45661D01*
X44700Y-45682D01*
X44721Y-45661D01*
X44700Y-45639D01*
X44700Y-45682D01*
X44486Y-45682D02*
X44486Y-45382D01*
X44486Y-45232D02*
X44507Y-45254D01*
X44486Y-45275D01*
X44464Y-45254D01*
X44486Y-45232D01*
X44486Y-45275D01*
X44208Y-45682D02*
X44250Y-45661D01*
X44272Y-45639D01*
X44293Y-45596D01*
X44293Y-45468D01*
X44272Y-45425D01*
X44250Y-45404D01*
X44208Y-45382D01*
X44143Y-45382D01*
X44100Y-45404D01*
X44079Y-45425D01*
X44058Y-45468D01*
X44058Y-45596D01*
X44079Y-45639D01*
X44100Y-45661D01*
X44143Y-45682D01*
X44208Y-45682D01*
X43865Y-45682D02*
X43865Y-45382D01*
X43865Y-45468D02*
X43843Y-45425D01*
X43822Y-45404D01*
X43779Y-45382D01*
X43736Y-45382D01*
X43522Y-45682D02*
X43564Y-45661D01*
X43586Y-45639D01*
X43607Y-45596D01*
X43607Y-45468D01*
X43586Y-45425D01*
X43564Y-45404D01*
X43522Y-45382D01*
X43457Y-45382D01*
X43414Y-45404D01*
X43393Y-45425D01*
X43372Y-45468D01*
X43372Y-45596D01*
X43393Y-45639D01*
X43414Y-45661D01*
X43457Y-45682D01*
X43522Y-45682D01*
X42986Y-45682D02*
X42986Y-45232D01*
X42986Y-45661D02*
X43029Y-45682D01*
X43115Y-45682D01*
X43157Y-45661D01*
X43179Y-45639D01*
X43200Y-45596D01*
X43200Y-45468D01*
X43179Y-45425D01*
X43157Y-45404D01*
X43115Y-45382D01*
X43029Y-45382D01*
X42986Y-45404D01*
X42600Y-45661D02*
X42643Y-45682D01*
X42729Y-45682D01*
X42772Y-45661D01*
X42793Y-45618D01*
X42793Y-45446D01*
X42772Y-45404D01*
X42729Y-45382D01*
X42643Y-45382D01*
X42600Y-45404D01*
X42579Y-45446D01*
X42579Y-45489D01*
X42793Y-45532D01*
X42322Y-45682D02*
X42364Y-45661D01*
X42386Y-45639D01*
X42407Y-45596D01*
X42407Y-45468D01*
X42386Y-45425D01*
X42364Y-45404D01*
X42322Y-45382D01*
X42257Y-45382D01*
X42214Y-45404D01*
X42193Y-45425D01*
X42172Y-45468D01*
X42172Y-45596D01*
X42193Y-45639D01*
X42214Y-45661D01*
X42257Y-45682D01*
X42322Y-45682D01*
X41979Y-45639D02*
X41957Y-45661D01*
X41979Y-45682D01*
X42000Y-45661D01*
X41979Y-45639D01*
X41979Y-45682D01*
X41572Y-45661D02*
X41615Y-45682D01*
X41701Y-45682D01*
X41743Y-45661D01*
X41765Y-45639D01*
X41786Y-45596D01*
X41786Y-45468D01*
X41765Y-45425D01*
X41743Y-45404D01*
X41701Y-45382D01*
X41615Y-45382D01*
X41572Y-45404D01*
X41315Y-45682D02*
X41357Y-45661D01*
X41379Y-45639D01*
X41400Y-45596D01*
X41400Y-45468D01*
X41379Y-45425D01*
X41357Y-45404D01*
X41315Y-45382D01*
X41250Y-45382D01*
X41207Y-45404D01*
X41186Y-45425D01*
X41165Y-45468D01*
X41165Y-45596D01*
X41186Y-45639D01*
X41207Y-45661D01*
X41250Y-45682D01*
X41315Y-45682D01*
X40972Y-45682D02*
X40972Y-45382D01*
X40972Y-45425D02*
X40950Y-45404D01*
X40908Y-45382D01*
X40843Y-45382D01*
X40800Y-45404D01*
X40779Y-45446D01*
X40779Y-45682D01*
X40779Y-45446D02*
X40758Y-45404D01*
X40715Y-45382D01*
X40650Y-45382D01*
X40608Y-45404D01*
X40586Y-45446D01*
X40586Y-45682D01*
G54D10*
X42000Y-41500D02*
X41000Y-41500D01*
X41000Y-41500D02*
X41000Y-44500D01*
X41000Y-44500D02*
X42000Y-44500D01*
X42000Y-44500D02*
X42000Y-41500D01*
X41000Y-42500D02*
X42000Y-42500D01*
M02*
