G04 (created by PCBNEW-RS274X (2012-apr-16-27)-stable) date Sat 13 Sep 2014 01:38:15 PM PDT*
G01*
G70*
G90*
%MOIN*%
G04 Gerber Fmt 3.4, Leading zero omitted, Abs format*
%FSLAX34Y34*%
G04 APERTURE LIST*
%ADD10C,0.006000*%
%ADD11C,0.008000*%
%ADD12C,0.015000*%
%ADD13C,0.012000*%
G04 APERTURE END LIST*
G54D10*
G54D11*
X40282Y-44193D02*
X40732Y-44086D01*
X40411Y-44000D01*
X40732Y-43914D01*
X40282Y-43807D01*
X40732Y-42861D02*
X40518Y-43011D01*
X40732Y-43118D02*
X40282Y-43118D01*
X40282Y-42946D01*
X40304Y-42904D01*
X40325Y-42882D01*
X40368Y-42861D01*
X40432Y-42861D01*
X40475Y-42882D01*
X40496Y-42904D01*
X40518Y-42946D01*
X40518Y-43118D01*
X40689Y-41911D02*
X40711Y-41932D01*
X40732Y-41996D01*
X40732Y-42039D01*
X40711Y-42104D01*
X40668Y-42146D01*
X40625Y-42168D01*
X40539Y-42189D01*
X40475Y-42189D01*
X40389Y-42168D01*
X40346Y-42146D01*
X40304Y-42104D01*
X40282Y-42039D01*
X40282Y-41996D01*
X40304Y-41932D01*
X40325Y-41911D01*
G54D12*
X42000Y-45300D02*
X42000Y-45100D01*
X42000Y-45200D02*
X42000Y-40700D01*
X42000Y-40700D02*
X47000Y-40700D01*
X47000Y-40700D02*
X47000Y-45300D01*
X47000Y-45300D02*
X42000Y-45300D01*
G54D13*
M02*
